<svg width="370" height="78" viewBox="0 0 370 78" fill="none" xmlns="http://www.w3.org/2000/svg">
<path d="M0.725001 63V4.6H7.925V37.16H16.405L29.205 19H37.445L22.645 39.96L37.685 63H29.285L16.485 43.4H7.925V63H0.725001ZM47.8938 63V56.44H63.4938V25.56H49.8938V19H70.6938V56.44H85.4938V63H47.8938ZM66.2938 11.08C64.5338 11.08 63.1471 10.6267 62.1338 9.72C61.1204 8.81333 60.6138 7.58666 60.6138 6.04C60.6138 4.44 61.1204 3.18666 62.1338 2.27999C63.1471 1.32 64.5338 0.839999 66.2938 0.839999C68.0538 0.839999 69.4404 1.32 70.4538 2.27999C71.4671 3.18666 71.9738 4.44 71.9738 6.04C71.9738 7.58666 71.4671 8.81333 70.4538 9.72C69.4404 10.6267 68.0538 11.08 66.2938 11.08ZM110.503 63.8C106.129 63.8 102.583 62.3333 99.8625 59.4C97.1958 56.4667 95.8625 52.4933 95.8625 47.48V34.6C95.8625 29.5333 97.1958 25.5333 99.8625 22.6C102.529 19.6667 106.076 18.2 110.503 18.2C114.129 18.2 117.036 19.1867 119.223 21.16C121.409 23.1333 122.503 25.7733 122.503 29.08L121.063 27.4H122.663L122.503 17.4V4.6H129.703V63H122.503V54.6H121.063L122.503 52.92C122.503 56.28 121.409 58.9467 119.223 60.92C117.036 62.84 114.129 63.8 110.503 63.8ZM112.903 57.56C115.889 57.56 118.236 56.6267 119.943 54.76C121.649 52.8933 122.503 50.3067 122.503 47V35C122.503 31.6933 121.649 29.1067 119.943 27.24C118.236 25.3733 115.889 24.44 112.903 24.44C109.863 24.44 107.463 25.3467 105.703 27.16C103.943 28.9733 103.063 31.5867 103.063 35V47C103.063 50.4133 103.943 53.0267 105.703 54.84C107.463 56.6533 109.863 57.56 112.903 57.56ZM158.471 63.8C154.098 63.8 150.551 62.3333 147.831 59.4C145.165 56.4667 143.831 52.4933 143.831 47.48V34.6C143.831 29.5333 145.165 25.5333 147.831 22.6C150.498 19.6667 154.045 18.2 158.471 18.2C162.098 18.2 165.005 19.1867 167.191 21.16C169.378 23.1333 170.471 25.7733 170.471 29.08L169.031 27.4H170.631L170.471 17.4V4.6H177.671V63H170.471V54.6H169.031L170.471 52.92C170.471 56.28 169.378 58.9467 167.191 60.92C165.005 62.84 162.098 63.8 158.471 63.8ZM160.871 57.56C163.858 57.56 166.205 56.6267 167.911 54.76C169.618 52.8933 170.471 50.3067 170.471 47V35C170.471 31.6933 169.618 29.1067 167.911 27.24C166.205 25.3733 163.858 24.44 160.871 24.44C157.831 24.44 155.431 25.3467 153.671 27.16C151.911 28.9733 151.031 31.5867 151.031 35V47C151.031 50.4133 151.911 53.0267 153.671 54.84C155.431 56.6533 157.831 57.56 160.871 57.56ZM254.409 63.8C250.035 63.8 246.489 62.3333 243.769 59.4C241.102 56.4667 239.769 52.4933 239.769 47.48V34.6C239.769 29.5333 241.102 25.5333 243.769 22.6C246.435 19.6667 249.982 18.2 254.409 18.2C258.035 18.2 260.942 19.1867 263.129 21.16C265.315 23.1333 266.409 25.7733 266.409 29.08L264.969 27.4H266.569L266.409 17.4V4.6H273.609V63H266.409V54.6H264.969L266.409 52.92C266.409 56.28 265.315 58.9467 263.129 60.92C260.942 62.84 258.035 63.8 254.409 63.8ZM256.809 57.56C259.795 57.56 262.142 56.6267 263.849 54.76C265.555 52.8933 266.409 50.3067 266.409 47V35C266.409 31.6933 265.555 29.1067 263.849 27.24C262.142 25.3733 259.795 24.44 256.809 24.44C253.769 24.44 251.369 25.3467 249.609 27.16C247.849 28.9733 246.969 31.5867 246.969 35V47C246.969 50.4133 247.849 53.0267 249.609 54.84C251.369 56.6533 253.769 57.56 256.809 57.56ZM304.938 63.64C301.418 63.64 298.378 62.9733 295.818 61.64C293.258 60.3067 291.258 58.3867 289.818 55.88C288.431 53.32 287.738 50.3067 287.738 46.84V35.16C287.738 31.64 288.431 28.6267 289.818 26.12C291.258 23.6133 293.258 21.6933 295.818 20.36C298.378 19.0267 301.418 18.36 304.938 18.36C308.458 18.36 311.498 19.0267 314.058 20.36C316.618 21.6933 318.591 23.6133 319.978 26.12C321.418 28.6267 322.138 31.6133 322.138 35.08V46.84C322.138 50.3067 321.418 53.32 319.978 55.88C318.591 58.3867 316.618 60.3067 314.058 61.64C311.498 62.9733 308.458 63.64 304.938 63.64ZM304.938 57.24C308.084 57.24 310.538 56.36 312.298 54.6C314.058 52.84 314.938 50.2533 314.938 46.84V35.16C314.938 31.7467 314.058 29.16 312.298 27.4C310.538 25.64 308.084 24.76 304.938 24.76C301.844 24.76 299.391 25.64 297.578 27.4C295.818 29.16 294.938 31.7467 294.938 35.16V46.84C294.938 50.2533 295.818 52.84 297.578 54.6C299.391 56.36 301.844 57.24 304.938 57.24ZM341.786 77.4V70.84H355.786C358.026 70.84 359.653 70.3333 360.666 69.32C361.733 68.3067 362.266 66.7333 362.266 64.6V59L362.426 51H360.986L362.346 49.8C362.346 53 361.28 55.5333 359.146 57.4C357.013 59.2667 354.16 60.2 350.586 60.2C346.053 60.2 342.48 58.7333 339.866 55.8C337.253 52.8133 335.946 48.8133 335.946 43.8V34.52C335.946 29.5067 337.253 25.5333 339.866 22.6C342.48 19.6667 346.053 18.2 350.586 18.2C354.16 18.2 357.013 19.1333 359.146 21C361.28 22.8667 362.346 25.4 362.346 28.6L360.986 27.4H362.346V19H369.466V64.6C369.466 68.5467 368.24 71.6667 365.786 73.96C363.386 76.2533 360.026 77.4 355.706 77.4H341.786ZM352.746 53.96C355.733 53.96 358.08 53.0267 359.786 51.16C361.493 49.2933 362.346 46.7067 362.346 43.4V35C362.346 31.6933 361.493 29.1067 359.786 27.24C358.08 25.3733 355.733 24.44 352.746 24.44C349.706 24.44 347.333 25.3467 345.626 27.16C343.973 28.9733 343.146 31.5867 343.146 35V43.4C343.146 46.8133 343.973 49.4267 345.626 51.24C347.333 53.0533 349.706 53.96 352.746 53.96Z" fill="#828284"/>
</svg>
